<svg width="132" height="143" viewBox="0 0 132 143" fill="none" xmlns="http://www.w3.org/2000/svg">
<ellipse cx="67.2467" cy="77.2231" rx="54.185" ry="52.6521" fill="#FF9AAC"/>
<path d="M17.319 113.975H18.1067C19.2226 113.975 19.3393 113.847 19.3393 112.649V105.016H6.91078C5.78653 105.057 4.68521 105.337 3.68455 105.837C2.6839 106.336 1.80829 107.043 1.11954 107.908L0.980957 107.759C3.22014 104.818 5.61979 103.719 7.88814 103.719C10.4993 103.719 16.4291 104.57 19.1351 104.57H19.3685V97.8083C19.3685 96.6105 19.2518 96.4829 18.1359 96.4829H17.319V96.2561H26.6258C26.9345 96.2185 27.2461 96.2999 27.4938 96.4829L27.4208 95.3277H27.6323L28.0554 102.089H27.6323L27.5886 100.324C27.45 97.6311 26.2392 96.7097 24.0001 96.7097H20.6741C21.0068 97.0644 21.1915 97.5268 21.192 98.0067V104.548H22.1256C23.4311 104.548 24.6419 104.293 24.6419 101.905V101.026H24.8534V109.035H24.6711V107.667C24.6711 105.271 23.4603 104.995 22.1547 104.995H21.192V112.408C21.1915 112.888 21.0068 113.351 20.6741 113.705H25.3202C27.5594 113.705 28.6316 112.734 28.7993 110.339L28.9379 108.34H29.3099L28.916 115.102H28.7045L28.7775 113.946C28.53 114.124 28.222 114.202 27.9168 114.166H17.319V113.975Z" fill="#5A143A"/>
<path d="M39.7254 95.9584C39.7254 95.4836 39.4774 95.2142 38.9961 95.2142H37.9239V94.9874H39.2586C40.2141 94.9874 41.3592 94.6898 41.3592 93.6621V93.5629H41.5416V107.263C41.5106 107.576 41.5483 107.893 41.6522 108.191C41.756 108.49 41.9237 108.763 42.1441 108.994C42.3646 109.225 42.6328 109.408 42.9312 109.531C43.2297 109.654 43.5515 109.714 43.8756 109.708C44.2951 109.702 44.7094 109.617 45.0948 109.456C45.4802 109.294 45.8292 109.061 46.1218 108.769C46.4144 108.477 46.6449 108.131 46.8001 107.752C46.9553 107.374 47.0323 106.969 47.0265 106.561C47.0366 105.822 46.7495 105.109 46.2264 104.573C45.7032 104.037 44.9854 103.72 44.2257 103.691C43.9406 103.683 43.6702 103.567 43.4734 103.366C43.2766 103.166 43.1695 102.898 43.1754 102.621H43.6349C44.6771 102.654 45.6631 103.087 46.3768 103.826C47.0905 104.565 47.4737 105.548 47.4422 106.561C47.4422 111.069 44.0506 114.719 39.8786 114.719C39.0951 114.71 38.3209 114.552 37.6003 114.253C36.8797 113.954 36.2268 113.52 35.6789 112.976C35.131 112.431 34.6987 111.788 34.4069 111.081C34.115 110.374 33.9693 109.619 33.9779 108.858V95.9584C33.9779 95.4836 33.73 95.2142 33.2486 95.2142H32.2347V94.9874H33.5184C34.4739 94.9874 35.619 94.6898 35.619 93.6621V93.5629H35.8014V108.836C35.6615 109.155 35.5872 109.497 35.5826 109.843C35.6356 110.992 36.155 112.074 37.027 112.853C37.8991 113.631 39.0529 114.042 40.236 113.996C43.5838 113.996 46.3846 111.501 47.0775 108.163C46.7921 108.755 46.3398 109.256 45.7731 109.609C45.2064 109.961 44.5484 110.151 43.8756 110.155C41.3884 110.155 39.7254 108.737 39.7254 106.611V95.9584Z" fill="#5A143A"/>
<path d="M64.5825 115.194V113.45C64.5825 112.826 64.1595 112.224 63.6416 112.224C63.5102 112.233 63.3822 112.269 63.2664 112.33C63.1507 112.391 63.0498 112.476 62.9706 112.578C62.4561 113.158 61.8174 113.621 61.0993 113.936C60.3811 114.251 59.6009 114.409 58.8132 114.4C54.2108 114.4 51.1401 110.707 51.1401 105.186C51.1401 100.161 54.7214 96.0789 59.1633 96.0789C60.7422 96.0553 62.2709 96.6181 63.4374 97.6523C63.5634 97.7865 63.6513 97.9501 63.6927 98.1272H63.7875C63.7364 97.9399 63.7119 97.7468 63.7146 97.5531L63.5979 95.1221H63.8313L64.2033 102.812H63.8094L63.6927 101.139C63.685 99.9118 63.1772 98.7372 62.2806 97.8726C61.3839 97.0079 60.1713 96.5235 58.908 96.5254C55.4653 96.5254 53.1678 99.8281 53.1678 104.782C53.1678 109.85 55.7425 113.96 58.908 113.96C59.7012 113.963 60.4833 113.779 61.1871 113.424C61.891 113.068 62.4955 112.552 62.9487 111.919V108.652C62.9772 108.357 62.9418 108.059 62.8447 107.777C62.7475 107.496 62.5909 107.237 62.3848 107.019C62.1787 106.8 61.9277 106.625 61.648 106.506C61.3682 106.387 61.066 106.326 60.7606 106.327H58.0692V105.881H66.7707V106.327H64.7868V115.208L64.5825 115.194Z" fill="#5A143A"/>
<path d="M71.351 95.9584C71.351 95.4836 71.103 95.2142 70.6217 95.2142H69.5276V94.9874H70.8551C71.8105 94.9874 72.9557 94.6898 72.9557 93.6621V93.5629H73.1453V111.125C73.0059 111.446 72.9316 111.791 72.9265 112.139C72.9223 112.535 73.0768 112.917 73.3572 113.204C73.6377 113.491 74.022 113.66 74.429 113.677C74.6208 113.676 74.8103 113.636 74.9852 113.559C75.1601 113.483 75.3165 113.372 75.4443 113.233C75.5722 113.094 75.6686 112.93 75.7274 112.753C75.7862 112.576 75.806 112.388 75.7856 112.203C75.7845 111.963 75.7501 111.725 75.6835 111.494L75.8732 111.395C75.9496 111.665 75.9889 111.944 75.9899 112.224C76.0159 112.509 75.9792 112.797 75.8823 113.067C75.7853 113.337 75.6303 113.585 75.4275 113.792C75.2248 114 74.9788 114.164 74.7061 114.272C74.4333 114.381 74.14 114.431 73.8455 114.421C72.4816 114.421 71.3291 112.968 71.3291 111.175L71.351 95.9584Z" fill="#5A143A"/>
<path d="M79.3742 106.809C79.3655 105.828 79.5561 104.854 79.9349 103.944C80.3137 103.034 80.8734 102.206 81.5819 101.506C82.2905 100.806 83.134 100.249 84.0642 99.8663C84.9945 99.4836 85.9933 99.2828 87.0035 99.2754C91.5985 99.2754 94.6546 102.288 94.6546 106.809C94.6701 108.797 93.8732 110.71 92.4388 112.128C91.0043 113.546 89.0495 114.353 87.0035 114.372C82.4521 114.4 79.3742 111.374 79.3742 106.809ZM92.6269 107.284C92.6269 103.11 90.0668 99.7219 86.9086 99.7219C83.6046 99.7219 81.4018 102.38 81.4018 106.363C81.4018 110.53 83.9401 113.918 87.0764 113.918C90.4315 113.946 92.6561 111.296 92.6561 107.312L92.6269 107.284Z" fill="#5A143A"/>
<path d="M125.646 98.1272C122.765 98.1272 118.782 99.488 115.989 99.8778C116.564 100.063 117.062 100.426 117.407 100.91C117.751 101.395 117.924 101.975 117.9 102.564C117.889 103.02 117.797 103.47 117.63 103.896L113.655 114.301L112.349 114.421L108.907 102.153L105.486 114.322L104.18 114.421L99.5342 101.274C99.1184 100.076 98.9798 99.7289 98.1848 99.7289H97.8347V99.5022H101.255V99.8494C101.261 100.214 101.315 100.576 101.416 100.927L105.34 111.558C105.421 111.852 105.467 112.154 105.479 112.458H105.712C105.726 112.153 105.78 111.85 105.872 111.558L108.746 101.352V101.253C108.418 100.083 108.206 99.7077 107.368 99.7077H105.909V99.4809H111.139V99.7219H109.789V99.7715C110.117 99.892 110.395 100.48 110.519 100.92L113.509 111.551C113.6 111.852 113.649 112.165 113.655 112.479H113.983C113.995 112.119 114.074 111.763 114.216 111.43L117.2 103.818C117.363 103.414 117.447 102.984 117.448 102.55C117.448 101.182 116.602 99.977 115.121 99.977H114.727V99.5305C117.294 99.5305 121.744 97.0357 124.982 97.0357C129.14 97.0357 131.838 99.2541 131.838 102.798C131.874 103.808 131.495 104.791 130.785 105.53C130.075 106.268 129.092 106.703 128.053 106.738H127.586C127.579 106.602 127.6 106.466 127.649 106.338C127.697 106.209 127.771 106.092 127.867 105.992C127.963 105.892 128.079 105.812 128.207 105.757C128.335 105.701 128.474 105.671 128.614 105.668C129.368 105.639 130.08 105.327 130.602 104.799C131.124 104.27 131.416 103.566 131.415 102.833C131.401 99.9274 129.147 98.1272 125.646 98.1272Z" fill="#5A143A"/>
<path d="M15.5466 117.022C15.5093 117.037 15.4683 117.04 15.4292 117.031C15.3901 117.022 15.3547 117.002 15.3278 116.973C15.2971 116.939 15.2768 116.897 15.2694 116.852C15.2678 116.807 15.2805 116.762 15.3059 116.725C15.3345 116.676 15.3817 116.64 15.4372 116.625C15.604 116.559 15.782 116.523 15.9623 116.519C16.1172 116.512 16.271 116.547 16.4073 116.618C16.5609 116.695 16.6992 116.799 16.8157 116.923C16.9609 117.055 17.0731 117.217 17.1439 117.398C17.1958 117.535 17.2325 117.678 17.2533 117.823C17.2669 117.957 17.2889 118.089 17.319 118.22C17.366 118.363 17.4458 118.494 17.5524 118.603C17.6698 118.727 17.8218 118.816 17.99 118.858C18.1522 118.901 18.3249 118.889 18.4787 118.822C18.519 118.804 18.5641 118.797 18.6082 118.804C18.6523 118.81 18.6935 118.829 18.7267 118.858C18.7566 118.882 18.7771 118.916 18.7851 118.953C18.793 118.991 18.7878 119.029 18.7704 119.063C18.7296 119.131 18.6647 119.181 18.5881 119.205C18.3559 119.293 18.1023 119.313 17.8587 119.262C17.6167 119.206 17.3979 119.08 17.2314 118.9C17.0977 118.776 16.9954 118.623 16.9324 118.454C16.8895 118.323 16.8625 118.187 16.8522 118.05C16.8414 117.916 16.817 117.783 16.7792 117.653C16.7171 117.491 16.6201 117.344 16.4948 117.221C16.415 117.133 16.3184 117.06 16.2103 117.008C16.1207 116.962 16.0199 116.94 15.9186 116.944C15.7909 116.949 15.665 116.975 15.5466 117.022Z" fill="white"/>
<path d="M22.2423 124.095L21.9579 124.45C21.6745 124.735 21.5062 125.11 21.4838 125.506C21.5179 125.688 21.5906 125.862 21.6973 126.016C21.804 126.169 21.9424 126.3 22.1038 126.399L22.7602 126.902C23.0146 127.13 23.331 127.283 23.6719 127.341C23.8121 127.347 23.9515 127.319 24.0784 127.261C24.2053 127.203 24.3161 127.117 24.4013 127.008C24.443 126.961 24.4993 126.929 24.5618 126.916C24.5917 126.913 24.622 126.916 24.6508 126.925C24.6796 126.933 24.7064 126.947 24.7295 126.966C24.7527 126.982 24.7719 127.004 24.7858 127.028C24.7997 127.053 24.8078 127.08 24.8098 127.108C24.8081 127.171 24.7821 127.232 24.7368 127.278C24.6115 127.429 24.4542 127.553 24.2756 127.641C24.097 127.729 23.9012 127.779 23.7011 127.788C23.2488 127.74 22.8231 127.557 22.483 127.264L21.8266 126.76C21.6143 126.631 21.4329 126.459 21.2945 126.256C21.1562 126.053 21.064 125.824 21.0243 125.584C21.0335 125.056 21.244 124.551 21.6151 124.166L22.3882 123.202C22.6873 122.766 23.1377 122.449 23.6573 122.309C23.9046 122.291 24.153 122.323 24.3867 122.403C24.6204 122.484 24.8341 122.611 25.014 122.777L25.6704 123.28C25.8873 123.419 26.0697 123.603 26.2047 123.819C26.3396 124.035 26.4237 124.277 26.4508 124.528C26.4417 125.055 26.2311 125.56 25.8601 125.945L25.51 126.371C25.4151 126.491 25.313 126.512 25.1963 126.42L22.2423 124.095ZM24.7295 123.167C24.5942 123.038 24.4333 122.936 24.2565 122.869C24.0797 122.802 23.8908 122.771 23.7011 122.777C23.3026 122.896 22.9594 123.147 22.731 123.486L22.5341 123.734L25.3203 125.86L25.5245 125.612C25.8116 125.326 25.9826 124.948 26.0059 124.549C25.971 124.367 25.8979 124.194 25.7913 124.04C25.6847 123.886 25.5467 123.756 25.386 123.656L24.7295 123.167Z" fill="white"/>
<path d="M32.4609 127.873C32.5849 127.944 32.5995 128.05 32.5192 128.178L29.981 132.026C29.8935 132.161 29.7914 132.182 29.6747 132.111C29.6476 132.097 29.6242 132.078 29.6061 132.054C29.588 132.03 29.5757 132.002 29.5701 131.973C29.5645 131.943 29.5657 131.913 29.5737 131.885C29.5817 131.856 29.5963 131.829 29.6163 131.807L29.9664 131.268C29.6478 131.426 29.2885 131.489 28.9332 131.45C28.5778 131.411 28.2422 131.271 27.9679 131.048L27.7272 130.899C27.5113 130.788 27.3223 130.632 27.1726 130.444C27.023 130.256 26.9162 130.039 26.8593 129.808C26.8278 129.299 26.9858 128.796 27.3042 128.39L28.9088 125.952C28.9963 125.825 29.0985 125.796 29.2152 125.874C29.2422 125.888 29.2656 125.908 29.2837 125.932C29.3018 125.956 29.3141 125.984 29.3197 126.013C29.3253 126.042 29.3241 126.073 29.3161 126.101C29.3081 126.13 29.2935 126.157 29.2735 126.179L27.6689 128.617C27.4116 128.93 27.2795 129.323 27.2969 129.723C27.3514 129.903 27.4445 130.07 27.5703 130.213C27.696 130.356 27.8514 130.472 28.0263 130.552L28.267 130.701C28.6346 130.966 29.0785 131.112 29.5361 131.119C29.7274 131.107 29.9132 131.052 30.079 130.959C30.2447 130.865 30.386 130.736 30.4916 130.58L32.1983 127.986C32.2421 127.823 32.3442 127.795 32.4609 127.873Z" fill="white"/>
<path d="M32.6504 133.741C32.5264 133.678 32.4972 133.578 32.5775 133.437L34.7656 129.397C34.8385 129.262 34.9406 129.227 35.0646 129.298C35.0932 129.309 35.1187 129.326 35.1391 129.349C35.1595 129.371 35.1742 129.398 35.182 129.427C35.1898 129.456 35.1905 129.486 35.184 129.515C35.1776 129.545 35.1642 129.572 35.1449 129.595L34.6708 130.46C34.983 130.202 35.3708 130.046 35.7794 130.014C36.2126 129.996 36.6421 130.097 37.0194 130.304C37.1507 130.368 37.1725 130.467 37.0996 130.602C37.0911 130.631 37.0756 130.657 37.0544 130.679C37.0333 130.702 37.0071 130.718 36.9779 130.729C36.9488 130.739 36.9175 130.743 36.8867 130.739C36.8558 130.736 36.8263 130.725 36.8006 130.708C36.3627 130.452 35.841 130.369 35.3418 130.474C34.8426 130.631 34.4248 130.969 34.1748 131.417L32.9713 133.635C32.8765 133.777 32.7817 133.812 32.6504 133.741Z" fill="white"/>
<path d="M38.1208 136.35C37.8873 136.273 37.6731 136.15 37.4921 135.987C37.3111 135.825 37.1674 135.627 37.0705 135.407C36.9436 134.904 37.0138 134.374 37.2674 133.919L37.7707 132.792C37.9371 132.296 38.2849 131.878 38.7481 131.615C38.9848 131.528 39.2383 131.493 39.4905 131.513C39.7427 131.533 39.9874 131.606 40.2068 131.729L40.9727 132.055C41.2063 132.138 41.4192 132.268 41.5977 132.437C41.7761 132.605 41.9161 132.808 42.0084 133.033C42.1278 133.541 42.0553 134.074 41.8041 134.535L41.3082 135.641C41.144 136.138 40.7922 136.556 40.3235 136.81C40.0869 136.896 39.834 136.931 39.5822 136.912C39.3304 136.894 39.0856 136.823 38.8648 136.704L38.1208 136.35ZM37.6467 134.082C37.4522 134.43 37.3902 134.834 37.4717 135.223C37.5513 135.391 37.6664 135.541 37.8097 135.663C37.953 135.785 38.1211 135.877 38.3031 135.931L39.0763 136.257C39.2425 136.348 39.4261 136.404 39.6156 136.422C39.8051 136.44 39.9964 136.421 40.1776 136.364C40.5236 136.152 40.7818 135.828 40.907 135.45L41.403 134.337C41.6024 133.987 41.667 133.58 41.5853 133.189C41.5027 133.021 41.3857 132.872 41.2414 132.75C41.0972 132.628 40.9287 132.536 40.7466 132.48L40.0172 132.161C39.7727 132.041 39.5035 131.975 39.2295 131.97C39.0096 131.983 38.8023 132.074 38.646 132.225C38.4467 132.444 38.2887 132.696 38.1792 132.969L37.6467 134.082Z" fill="white"/>
<path d="M42.8544 140.524C42.8237 140.518 42.795 140.505 42.7706 140.486C42.7461 140.467 42.7267 140.443 42.7139 140.415C42.701 140.387 42.6952 140.357 42.6968 140.327C42.6984 140.296 42.7074 140.267 42.7231 140.241L44.831 133.805C44.882 133.656 44.9695 133.607 45.1081 133.649C45.1386 133.654 45.1673 133.666 45.1918 133.685C45.2164 133.703 45.236 133.727 45.2489 133.754C45.2618 133.781 45.2677 133.811 45.2661 133.841C45.2644 133.871 45.2553 133.9 45.2394 133.926L45.0498 134.5C45.2713 134.286 45.5577 134.147 45.8667 134.103C46.2617 134.063 46.661 134.111 47.0337 134.245L47.4057 134.358C47.6478 134.41 47.8757 134.512 48.0744 134.656C48.273 134.8 48.4379 134.984 48.5581 135.194C48.7318 135.687 48.7136 136.224 48.507 136.704L48.135 137.859C48.019 138.367 47.7154 138.816 47.2817 139.121C47.0526 139.222 46.8039 139.274 46.5523 139.274C46.3007 139.274 46.052 139.222 45.8229 139.121L43.7369 138.476L43.1242 140.34C43.0805 140.51 42.9929 140.567 42.8544 140.524ZM43.8828 138.072L45.9761 138.717C46.1507 138.792 46.3395 138.831 46.5304 138.831C46.7213 138.831 46.9101 138.792 47.0847 138.717C47.4105 138.471 47.6376 138.123 47.7266 137.732L48.0986 136.576C48.2623 136.209 48.2856 135.797 48.1642 135.414C48.0654 135.256 47.934 135.12 47.7784 135.014C47.6227 134.908 47.4462 134.834 47.2598 134.798L46.8878 134.677C46.4629 134.514 45.9962 134.484 45.553 134.592C45.3764 134.656 45.216 134.757 45.0827 134.886C44.9493 135.016 44.8461 135.172 44.7799 135.343L43.8828 138.072Z" fill="white"/>
<path d="M51.235 138.178L51.1402 138.618C51.0176 138.997 51.0383 139.407 51.1985 139.773C51.3138 139.919 51.4586 140.041 51.6242 140.132C51.7897 140.222 51.9725 140.278 52.1613 140.297L52.9855 140.467C53.3164 140.562 53.6684 140.562 53.9993 140.467C54.1236 140.411 54.2326 140.327 54.3175 140.223C54.4024 140.118 54.4608 139.996 54.488 139.865C54.5041 139.804 54.5399 139.749 54.5901 139.709C54.6162 139.697 54.6449 139.69 54.674 139.69C54.7031 139.69 54.7318 139.697 54.7579 139.709C54.8169 139.72 54.8691 139.753 54.9037 139.801C54.9166 139.83 54.9232 139.862 54.9232 139.893C54.9232 139.925 54.9166 139.956 54.9037 139.985C54.8622 140.175 54.7788 140.354 54.6591 140.51C54.5395 140.665 54.3865 140.793 54.2108 140.886C53.7842 141.046 53.3154 141.066 52.8761 140.942L52.0592 140.779C51.8139 140.752 51.5773 140.675 51.3648 140.553C51.1524 140.431 50.9689 140.266 50.8265 140.07C50.5962 139.604 50.557 139.069 50.7171 138.575L50.9724 137.377C51.0362 136.856 51.296 136.377 51.7018 136.031C51.9171 135.9 52.1598 135.817 52.4122 135.789C52.6646 135.761 52.9202 135.788 53.1605 135.868L53.9847 136.038C54.2302 136.064 54.4672 136.141 54.6798 136.263C54.8923 136.385 55.0756 136.55 55.2174 136.746C55.4431 137.22 55.4821 137.757 55.3268 138.256L55.2101 138.788C55.2101 138.936 55.0934 139 54.9548 138.972L51.235 138.178ZM53.0365 136.272C52.8573 136.212 52.6671 136.19 52.4786 136.207C52.29 136.225 52.1073 136.28 51.9425 136.371C51.6354 136.644 51.4432 137.017 51.4027 137.42L51.3298 137.732L54.8089 138.44L54.8746 138.136C55.0016 137.754 54.9808 137.341 54.8162 136.973C54.7039 136.823 54.5599 136.698 54.3939 136.607C54.2278 136.515 54.0436 136.459 53.8534 136.442L53.0365 136.272Z" fill="white"/>
<path d="M58.9516 141.871C58.7459 141.867 58.5433 141.82 58.3573 141.735C58.1712 141.649 58.0059 141.527 57.8722 141.375C57.6855 140.988 57.6126 140.559 57.6615 140.135C57.7105 139.711 57.8793 139.309 58.1493 138.972C58.3134 138.853 58.5014 138.768 58.7012 138.724C58.901 138.68 59.1081 138.678 59.309 138.717L61.6722 138.965C61.7559 138.586 61.688 138.191 61.4826 137.859C61.3554 137.725 61.2009 137.618 61.0289 137.545C60.8569 137.472 60.6711 137.434 60.4833 137.434L59.8925 137.37C59.5494 137.312 59.1968 137.334 58.8641 137.434C58.7524 137.484 58.6544 137.558 58.5783 137.652C58.5022 137.746 58.4502 137.856 58.4265 137.973C58.4168 138.029 58.3886 138.081 58.3463 138.122C58.3249 138.14 58.2992 138.154 58.2713 138.162C58.2434 138.169 58.2141 138.17 58.1858 138.164C58.1261 138.159 58.071 138.131 58.0326 138.086C58.0083 138.027 58.0083 137.961 58.0326 137.902C58.0523 137.725 58.1165 137.555 58.2196 137.408C58.3226 137.261 58.4613 137.141 58.6234 137.058C59.0504 136.888 59.5182 136.839 59.9728 136.917L60.5636 136.98C60.8111 136.984 61.0551 137.039 61.279 137.142C61.5029 137.244 61.7017 137.392 61.8618 137.576C62.1338 138.024 62.2273 138.554 62.1244 139.064L61.7962 141.942C61.7962 142.09 61.7014 142.161 61.5555 142.147C61.4096 142.133 61.3513 142.048 61.3732 141.899L61.4461 141.254C61.2348 141.538 60.943 141.757 60.6063 141.882C60.2696 142.008 59.9025 142.036 59.5497 141.963L58.9516 141.871ZM59.0027 141.417L59.5716 141.474C59.8806 141.525 60.1962 141.525 60.5052 141.474C60.7556 141.421 60.9857 141.301 61.1689 141.127C61.3494 140.926 61.4682 140.681 61.5117 140.418L61.6212 139.454L59.258 139.199C59.1135 139.167 58.9637 139.164 58.8181 139.191C58.6725 139.217 58.5342 139.273 58.4119 139.355C58.2313 139.609 58.1187 139.902 58.0843 140.209C58.0499 140.516 58.0948 140.827 58.215 141.112C58.4238 141.31 58.7042 141.419 58.9954 141.417H59.0027Z" fill="white"/>
<path d="M64.9107 142.338C64.7649 142.338 64.6992 142.261 64.6992 142.105L64.7722 137.533C64.7722 137.384 64.8524 137.306 64.991 137.306C65.1296 137.306 65.2025 137.391 65.2025 137.54V138.171C65.3899 137.877 65.6614 137.642 65.9838 137.494C66.3063 137.347 66.6658 137.294 67.0186 137.342H67.3104C67.5576 137.325 67.8057 137.359 68.0383 137.442C68.2709 137.525 68.4827 137.655 68.6597 137.824C68.9729 138.246 69.1157 138.766 69.0609 139.284L69.0171 142.175C69.0171 142.331 68.9369 142.402 68.7983 142.402C68.6597 142.402 68.5868 142.324 68.5868 142.168L68.6306 139.277C68.6837 138.878 68.5823 138.473 68.3461 138.143C68.2061 138.019 68.041 137.924 67.8615 137.866C67.6819 137.807 67.4917 137.786 67.3031 137.803H66.9749C66.5196 137.771 66.065 137.872 65.6693 138.093C65.5124 138.201 65.3838 138.343 65.2938 138.508C65.2039 138.673 65.1551 138.856 65.1514 139.043L65.1004 142.119C65.1223 142.246 65.0493 142.338 64.9107 142.338Z" fill="white"/>
<path d="M76.2962 141.899C75.9647 141.964 75.6204 141.903 75.3335 141.729C75.0738 141.518 74.9004 141.224 74.8448 140.9C74.8247 140.84 74.8247 140.775 74.8448 140.715C74.8846 140.671 74.9385 140.641 74.998 140.63C75.0274 140.626 75.0576 140.627 75.0865 140.634C75.1154 140.642 75.1424 140.655 75.1657 140.673C75.211 140.717 75.2393 140.774 75.2459 140.836C75.2738 141.043 75.3838 141.231 75.5523 141.36C75.7558 141.457 75.9862 141.487 76.2087 141.445L77.8717 141.24C77.9974 141.237 78.1212 141.209 78.2353 141.158C78.3495 141.107 78.4516 141.033 78.5354 140.942C78.6322 140.701 78.6649 140.441 78.6304 140.184C78.596 139.928 78.4956 139.684 78.3385 139.475C78.2327 139.406 78.113 139.359 77.9872 139.338C77.8614 139.318 77.7325 139.323 77.6091 139.355L75.968 139.553C75.7987 139.589 75.6237 139.589 75.4541 139.555C75.2845 139.521 75.1241 139.453 74.9834 139.355C74.7436 139.079 74.5912 138.741 74.5446 138.382C74.498 138.024 74.5592 137.66 74.7208 137.335C74.8309 137.206 74.9676 137.101 75.1221 137.026C75.2767 136.952 75.4456 136.909 75.6179 136.902L77.2153 136.704C77.3732 136.655 77.5404 136.642 77.7043 136.665C77.8683 136.688 78.0248 136.747 78.1622 136.837C78.2996 136.927 78.4143 137.046 78.4979 137.185C78.5815 137.324 78.6317 137.479 78.6448 137.639C78.658 137.667 78.6647 137.698 78.6647 137.728C78.6647 137.759 78.658 137.789 78.6448 137.817C78.6263 137.842 78.6023 137.862 78.5746 137.877C78.5468 137.892 78.516 137.9 78.4844 137.902C78.4282 137.911 78.3706 137.898 78.3239 137.866C78.2818 137.82 78.2518 137.764 78.2364 137.703C78.2248 137.61 78.1943 137.52 78.1467 137.439C78.0992 137.357 78.0354 137.286 77.9592 137.228C77.77 137.144 77.5574 137.121 77.3538 137.165L75.7638 137.356C75.6471 137.358 75.5321 137.383 75.4256 137.429C75.3191 137.476 75.2232 137.542 75.1438 137.625C75.0291 137.844 74.9981 138.095 75.0563 138.334C75.0623 138.578 75.158 138.812 75.3262 138.993C75.5243 139.112 75.7629 139.151 75.9899 139.1L77.631 138.901C77.8093 138.863 77.9939 138.862 78.1725 138.899C78.3511 138.935 78.5196 139.009 78.6667 139.114C78.9413 139.388 79.1023 139.752 79.1189 140.134C79.1961 140.509 79.1341 140.898 78.9439 141.233C78.8278 141.37 78.6834 141.482 78.5201 141.561C78.3567 141.64 78.1781 141.685 77.9957 141.694L76.2962 141.899Z" fill="white"/>
<path d="M82.1385 141.027C82 141.027 81.9124 141.027 81.8833 140.85L80.3516 133.933C80.3516 133.784 80.3516 133.692 80.512 133.663C80.6725 133.635 80.7381 133.663 80.7673 133.848L81.7811 138.419L83.838 135.499C83.8548 135.476 83.8772 135.457 83.9032 135.443C83.9292 135.43 83.9581 135.423 83.9875 135.423C84.0169 135.423 84.0458 135.43 84.0718 135.443C84.0978 135.457 84.1202 135.476 84.137 135.499C84.164 135.516 84.187 135.538 84.2045 135.564C84.222 135.591 84.2335 135.62 84.2384 135.651C84.2432 135.682 84.2412 135.713 84.2325 135.743C84.2239 135.773 84.2087 135.801 84.1881 135.825L82.7293 137.902L85.3697 139.985C85.3967 140.002 85.4197 140.025 85.4372 140.051C85.4546 140.077 85.4662 140.106 85.471 140.137C85.4758 140.168 85.4738 140.2 85.4652 140.23C85.4565 140.26 85.4414 140.288 85.4207 140.311C85.3405 140.425 85.2457 140.439 85.1217 140.347L82.4668 138.263L81.9197 139.036L82.3063 140.793C82.3355 140.907 82.2917 140.999 82.1385 141.027Z" fill="white"/>
<path d="M86.0407 133.89C85.8438 133.94 85.7125 133.89 85.6468 133.642L85.5885 133.43C85.57 133.391 85.5607 133.349 85.5613 133.306C85.5619 133.263 85.5725 133.221 85.5921 133.183C85.6117 133.145 85.6399 133.112 85.6747 133.086C85.7094 133.06 85.7498 133.042 85.7927 133.033L85.9896 132.983C86.1866 132.926 86.3106 132.983 86.3762 133.217L86.4346 133.43C86.4978 133.652 86.4321 133.786 86.2376 133.834L86.0407 133.89ZM87.835 139.695C87.6964 139.695 87.6088 139.695 87.5651 139.525L86.2814 135.159C86.2687 135.132 86.2625 135.102 86.2633 135.072C86.264 135.042 86.2717 135.013 86.2857 134.987C86.2997 134.96 86.3197 134.937 86.3443 134.919C86.3688 134.901 86.3971 134.888 86.4273 134.882C86.5658 134.847 86.6534 134.882 86.6971 135.046L87.9735 139.447C88.0173 139.56 87.9735 139.652 87.835 139.695Z" fill="white"/>
<path d="M91.0441 138.745C90.9128 138.795 90.818 138.745 90.767 138.603L89.1623 134.301C89.1113 134.16 89.1623 134.06 89.2863 134.018C89.4103 133.975 89.5124 134.018 89.5708 134.16L89.7896 134.755C89.8548 134.412 90.0223 134.094 90.2712 133.842C90.5201 133.59 90.8395 133.415 91.19 133.337L91.4526 133.238C91.6818 133.138 91.9304 133.086 92.1819 133.086C92.4335 133.086 92.6821 133.138 92.9113 133.238C93.3569 133.526 93.6786 133.962 93.8157 134.464L94.8296 137.186C94.8879 137.328 94.8296 137.427 94.7129 137.469C94.6851 137.483 94.6543 137.49 94.6231 137.49C94.5918 137.49 94.5611 137.483 94.5333 137.469C94.5055 137.456 94.4815 137.435 94.4633 137.411C94.445 137.386 94.4331 137.358 94.4284 137.328L93.4146 134.606C93.3122 134.219 93.0719 133.88 92.7363 133.649C92.5582 133.583 92.368 133.553 92.1774 133.56C91.9869 133.567 91.7998 133.612 91.6276 133.692L91.365 133.784C90.9281 133.91 90.538 134.156 90.2418 134.493C90.1363 134.649 90.0689 134.827 90.0449 135.012C90.0209 135.198 90.0408 135.386 90.1032 135.563L91.1827 138.455C91.2483 138.603 91.2119 138.703 91.0441 138.745Z" fill="white"/>
<path d="M99.1986 135.563C98.981 135.689 98.7383 135.768 98.4866 135.794C98.235 135.821 97.9804 135.796 97.7399 135.719C97.2657 135.476 96.8998 135.072 96.7115 134.585L96.1717 133.479C95.9035 133.03 95.8104 132.502 95.9092 131.991C95.9986 131.765 96.1376 131.562 96.3165 131.394C96.4954 131.226 96.7099 131.099 96.9449 131.02L97.6742 130.666C98.0203 130.477 98.4178 130.398 98.8121 130.439C98.9772 130.476 99.1319 130.548 99.2654 130.65C99.3989 130.752 99.5081 130.88 99.5852 131.027C99.6043 131.052 99.6175 131.081 99.6238 131.112C99.6301 131.142 99.6294 131.174 99.6217 131.204C99.613 131.233 99.5972 131.26 99.5756 131.283C99.554 131.305 99.5273 131.322 99.4977 131.332C99.4734 131.342 99.4474 131.347 99.4211 131.347C99.3948 131.347 99.3688 131.342 99.3445 131.332C99.2893 131.305 99.2435 131.263 99.2132 131.211C99.1599 131.118 99.0856 131.038 98.9959 130.977C98.9063 130.915 98.8036 130.874 98.6954 130.857C98.4063 130.857 98.1222 130.93 97.8712 131.07L97.1418 131.417C96.9624 131.473 96.7971 131.565 96.6565 131.687C96.5158 131.81 96.4029 131.959 96.3249 132.126C96.2552 132.525 96.3355 132.935 96.551 133.281L97.0907 134.379C97.2315 134.757 97.5054 135.073 97.8639 135.272C98.0467 135.324 98.2387 135.337 98.4273 135.312C98.6159 135.286 98.7967 135.222 98.9579 135.124L99.6873 134.776C99.9555 134.673 100.192 134.505 100.373 134.287C100.427 134.195 100.458 134.093 100.466 133.987C100.473 133.882 100.457 133.776 100.417 133.678C100.399 133.62 100.399 133.558 100.417 133.5C100.425 133.475 100.44 133.452 100.458 133.432C100.477 133.412 100.5 133.397 100.526 133.387C100.554 133.375 100.583 133.369 100.614 133.369C100.644 133.369 100.674 133.375 100.701 133.387C100.731 133.399 100.757 133.418 100.779 133.441C100.8 133.464 100.816 133.492 100.825 133.522C100.898 133.671 100.936 133.835 100.936 134C100.936 134.166 100.898 134.329 100.825 134.479C100.612 134.802 100.297 135.05 99.928 135.187L99.1986 135.563Z" fill="white"/>
<path d="M104.902 132.657C104.736 132.774 104.546 132.855 104.345 132.895C104.144 132.935 103.936 132.934 103.735 132.891C103.347 132.693 103.022 132.394 102.798 132.027C102.574 131.661 102.459 131.241 102.466 130.814C102.523 130.623 102.62 130.445 102.752 130.292C102.884 130.139 103.048 130.015 103.232 129.928L105.274 128.745C105.103 128.394 104.804 128.116 104.436 127.965C104.25 127.936 104.059 127.943 103.876 127.987C103.693 128.031 103.521 128.11 103.371 128.22L102.86 128.511C102.553 128.666 102.288 128.889 102.087 129.163C102.023 129.271 101.989 129.393 101.989 129.517C101.989 129.642 102.023 129.764 102.087 129.872C102.104 129.927 102.104 129.986 102.087 130.042C102.082 130.069 102.071 130.094 102.055 130.116C102.039 130.139 102.017 130.157 101.992 130.169C101.965 130.183 101.935 130.189 101.905 130.189C101.874 130.189 101.844 130.183 101.817 130.169C101.786 130.158 101.758 130.141 101.734 130.12C101.71 130.098 101.692 130.071 101.679 130.042C101.583 129.889 101.529 129.716 101.52 129.538C101.511 129.36 101.548 129.182 101.628 129.021C101.864 128.639 102.205 128.327 102.612 128.121L103.123 127.823C103.323 127.682 103.552 127.583 103.795 127.534C104.038 127.485 104.289 127.487 104.53 127.54C105.028 127.738 105.433 128.106 105.668 128.575L107.185 131.062C107.266 131.19 107.251 131.296 107.127 131.367C107.102 131.386 107.073 131.398 107.042 131.403C107.011 131.409 106.979 131.407 106.949 131.398C106.919 131.389 106.892 131.373 106.87 131.352C106.847 131.33 106.831 131.304 106.821 131.275L106.478 130.722C106.482 131.07 106.382 131.412 106.188 131.706C105.995 131.999 105.718 132.231 105.391 132.374L104.902 132.657ZM104.662 132.26L105.15 131.977C105.426 131.829 105.673 131.634 105.88 131.403C106.048 131.217 106.157 130.988 106.193 130.743C106.219 130.475 106.161 130.206 106.026 129.971L105.515 129.135L103.473 130.318C103.339 130.38 103.219 130.467 103.12 130.574C103.021 130.681 102.945 130.806 102.897 130.942C102.909 131.251 103.001 131.551 103.164 131.816C103.327 132.081 103.556 132.302 103.83 132.459C103.972 132.48 104.117 132.474 104.256 132.44C104.395 132.406 104.526 132.345 104.64 132.26H104.662Z" fill="white"/>
<path d="M109.869 129.56C109.753 129.645 109.651 129.617 109.556 129.496L106.828 125.768C106.74 125.641 106.755 125.541 106.872 125.463C106.988 125.385 107.09 125.4 107.178 125.527L107.761 126.321C107.667 125.933 107.7 125.527 107.856 125.159C108.031 124.776 108.314 124.449 108.673 124.216C108.79 124.131 108.892 124.152 108.987 124.28C109.082 124.407 109.067 124.507 108.987 124.585C108.543 124.854 108.224 125.281 108.097 125.775C108.026 126.274 108.151 126.78 108.447 127.193L109.942 129.241C109.967 129.264 109.985 129.292 109.994 129.324C110.004 129.355 110.005 129.388 109.998 129.42C109.991 129.452 109.975 129.482 109.952 129.506C109.93 129.531 109.901 129.549 109.869 129.56Z" fill="white"/>
<path d="M112.123 125.031L112.415 125.371C112.644 125.7 112.989 125.937 113.385 126.037C113.576 126.043 113.766 126.011 113.943 125.941C114.12 125.871 114.28 125.767 114.413 125.633L115.055 125.109C115.336 124.914 115.553 124.647 115.683 124.336C115.713 124.206 115.711 124.07 115.678 123.939C115.645 123.809 115.582 123.688 115.493 123.585C115.453 123.537 115.432 123.477 115.435 123.415C115.436 123.386 115.444 123.358 115.458 123.332C115.472 123.306 115.491 123.284 115.515 123.266C115.537 123.247 115.564 123.232 115.593 123.224C115.622 123.215 115.653 123.213 115.683 123.217C115.746 123.232 115.8 123.27 115.836 123.323C115.962 123.473 116.054 123.647 116.106 123.834C116.157 124.021 116.167 124.216 116.135 124.407C116 124.832 115.726 125.203 115.354 125.463L114.712 125.981C114.538 126.152 114.328 126.286 114.097 126.373C113.866 126.459 113.618 126.497 113.37 126.484C112.851 126.364 112.394 126.064 112.087 125.641L111.284 124.705C110.895 124.328 110.666 123.822 110.643 123.288C110.67 123.05 110.749 122.821 110.874 122.615C111 122.41 111.17 122.233 111.372 122.097L112.014 121.572C112.188 121.401 112.398 121.269 112.63 121.183C112.861 121.098 113.109 121.061 113.356 121.076C113.879 121.196 114.339 121.499 114.647 121.927L115.004 122.345C115.029 122.363 115.048 122.387 115.062 122.414C115.075 122.441 115.082 122.471 115.082 122.501C115.082 122.531 115.075 122.56 115.062 122.587C115.048 122.615 115.029 122.638 115.004 122.657L112.123 125.031ZM111.693 122.472C111.534 122.573 111.398 122.705 111.295 122.86C111.192 123.016 111.124 123.19 111.095 123.373C111.132 123.776 111.315 124.152 111.613 124.436L111.817 124.677L114.545 122.465L114.333 122.217C114.106 121.877 113.763 121.626 113.363 121.509C113.172 121.506 112.982 121.541 112.806 121.612C112.629 121.682 112.469 121.787 112.335 121.92L111.693 122.472Z" fill="white"/>
<path d="M119.089 117.965C119.112 117.996 119.125 118.033 119.125 118.071C119.125 118.109 119.112 118.147 119.089 118.177C119.06 118.213 119.018 118.236 118.972 118.241C118.951 118.25 118.929 118.254 118.906 118.254C118.884 118.254 118.861 118.25 118.841 118.241C118.788 118.213 118.747 118.168 118.724 118.114C118.649 117.957 118.6 117.789 118.578 117.618C118.562 117.465 118.587 117.311 118.651 117.171C118.72 117.018 118.813 116.877 118.928 116.753C119.056 116.606 119.215 116.487 119.395 116.406C119.533 116.346 119.677 116.301 119.825 116.271C119.962 116.25 120.096 116.216 120.226 116.172C120.373 116.123 120.502 116.034 120.598 115.917C120.72 115.798 120.803 115.648 120.839 115.484C120.865 115.322 120.839 115.157 120.766 115.009C120.74 114.974 120.726 114.932 120.726 114.889C120.726 114.846 120.74 114.803 120.766 114.768C120.789 114.736 120.822 114.712 120.861 114.702C120.9 114.691 120.941 114.695 120.978 114.712C121.013 114.728 121.045 114.75 121.071 114.778C121.098 114.806 121.118 114.839 121.131 114.875C121.242 115.094 121.283 115.341 121.248 115.583C121.203 115.82 121.089 116.039 120.919 116.214C120.801 116.352 120.651 116.462 120.482 116.533C120.352 116.588 120.214 116.624 120.073 116.639C119.937 116.66 119.802 116.693 119.672 116.739C119.508 116.809 119.363 116.916 119.249 117.051C119.166 117.132 119.099 117.228 119.052 117.334C119.009 117.425 118.994 117.526 119.008 117.625C119.016 117.742 119.043 117.856 119.089 117.965Z" fill="white"/>
<path d="M67.3139 72.5426C66.0932 71.6869 64.8411 71.8654 63.6496 72.5426C62.6063 73.1265 61.6589 73.8422 60.4152 74.0693C61.2499 74.9675 62.0428 75.8048 62.8108 76.6645C63.44 77.4108 64.3478 77.8846 65.3357 77.9824C66.4035 78.0463 67.4741 78.0564 68.543 78.0128C69.0924 77.9986 69.6334 77.8788 70.1349 77.6603C70.6363 77.4417 71.0882 77.1288 71.4644 76.7395C72.0091 76.2083 72.4431 75.5717 72.9418 74.9938C73.2131 74.6816 73.5198 74.3998 73.7223 74.1828C72.7707 73.682 71.8317 73.236 70.9427 72.7088C70.0538 72.1817 69.1168 71.8978 68.0777 72.0154C67.7459 72.0519 67.3577 72.0843 67.3181 72.5486L67.3139 72.5426ZM44.6082 11.3054L44.5101 11.2324C44.3432 11.4149 44.1658 11.5893 44.0156 11.7839C43.4981 12.4571 42.9555 13.116 42.4839 13.8115C41.6138 15.0989 40.8521 16.4229 40.5892 17.976C40.2553 19.9508 41.3049 21.4228 42.8199 22.179C44.0496 22.8099 45.3985 23.1914 46.7847 23.3002C48.285 23.4158 49.7916 23.4543 51.2962 23.503C51.8846 23.5212 52.4835 23.3915 53.0616 23.4584C54.5932 23.6348 55.839 24.2349 55.7534 26.2645C55.7013 27.4911 55.2547 28.6245 54.7101 29.7234C54.5348 30.0803 54.3616 30.4391 54.1884 30.796C54.3859 30.7503 54.5643 30.647 54.6996 30.4999C55.357 29.8065 56.0393 29.1293 56.657 28.4035C57.8735 26.9842 59.0442 25.5204 59.5054 23.653C59.7558 22.6393 59.4678 21.6255 58.6227 20.9787C57.9006 20.4509 57.0399 20.1318 56.1395 20.0582C55.9141 20.0319 55.6929 19.967 55.4696 19.9224L55.4884 19.7987C55.9976 19.7724 56.5088 19.7541 57.018 19.7176C58.4188 19.6065 59.8287 19.7439 61.1789 20.1231C63.3241 20.7314 64.4906 22.6899 63.9647 24.8047C63.9391 24.9548 63.9252 25.1066 63.923 25.2588C63.9887 25.243 64.05 25.2132 64.1023 25.1714C64.1547 25.1297 64.1968 25.0771 64.2256 25.0175C64.7451 23.8294 65.3315 22.6636 65.7551 21.443C66.3331 19.7845 66.7985 18.0976 66.4354 16.2972C66.1829 15.0807 65.5903 14.144 64.4092 13.6168C62.6125 12.8058 60.747 13.0086 58.9002 13.3613C57.4395 13.6371 56.0247 14.0669 54.5703 14.3386C53.1617 14.6022 51.7323 14.7441 50.3133 14.9469C48.7691 15.2034 47.19 15.1876 45.6516 14.9002C44.5289 14.6731 43.4626 13.8865 44.0594 12.526C44.2472 12.1185 44.4246 11.713 44.6082 11.3054ZM68.9207 25.0763L69.0772 25.2669C69.2546 25.1939 69.4382 25.1311 69.6072 25.0459C71.4911 24.1215 73.2739 23.0143 74.9284 21.7411C76.7814 20.2731 78.4758 18.6653 79.563 16.5567C80.6064 14.5495 80.8297 12.4692 80.1118 10.3018C79.2771 7.76742 77.4846 5.89805 75.4897 4.21926C73.6597 2.66619 71.5562 1.51658 69.3986 0.466329C69.0668 0.304128 68.7266 0.156119 68.3969 0L68.2968 0.117596C71.4436 3.58668 72.3054 7.70457 71.911 12.1773C71.6105 10.7175 71.0095 9.40971 69.9181 8.34932C68.8623 7.33556 66.6253 6.19001 66.1182 6.37452C66.7609 6.75163 67.4725 7.0882 68.0944 7.54237C69.9724 8.91905 70.6172 10.902 70.6756 13.0775C70.7403 15.4112 70.1373 17.6495 69.2483 19.7906C68.5347 21.514 67.6374 23.1664 66.8235 24.8594C66.7843 24.974 66.7536 25.0912 66.7317 25.2102C66.805 25.1867 66.8751 25.1547 66.9404 25.1149C69.8618 22.2459 72.4181 19.1154 74.0833 15.3828C74.8491 13.6634 75.3916 11.8711 75.3353 9.96525C75.3123 9.19885 75.2456 8.43447 75.1976 7.6701L75.3207 7.6336C75.6045 8.74671 76.0093 9.84563 76.1408 10.975C76.3471 12.9085 76.0604 14.8617 75.3061 16.6621C74.1333 19.5696 72.2282 21.9803 69.987 24.164C69.649 24.4863 69.2754 24.7722 68.9144 25.0763H68.9207ZM90.7583 12.9477L90.6248 12.968C90.612 13.0287 90.6085 13.0908 90.6143 13.1525C90.8986 14.2509 90.8383 15.4068 90.4411 16.4716C89.7024 18.5457 88.2522 20.0947 86.4763 21.3477C83.4109 23.503 80.0513 25.0297 76.2785 25.6055C75.8257 25.6724 75.377 25.7718 74.8178 25.8792C74.9492 25.9976 75.0925 26.1029 75.2456 26.1935C78.9808 27.7831 82.7474 29.2753 86.8019 29.9404C88.9032 30.2871 91.0004 30.4594 93.085 29.8836C94.2529 29.5974 95.3033 28.9722 96.0962 28.0913C97.198 26.822 97.5569 25.2933 97.6007 23.6753C97.5908 23.5556 97.5706 23.4369 97.5402 23.3205C97.4847 23.3552 97.433 23.3953 97.3858 23.4401C97.327 23.4999 97.2784 23.5683 97.2418 23.6429C96.9225 24.5188 96.2506 25.0865 95.4681 25.5508C93.7173 26.5929 91.7307 26.9173 89.7588 27.0005C86.9208 27.1201 84.0745 26.9842 81.2303 26.9558C81.2303 26.8889 81.2303 26.822 81.2303 26.7531C81.5684 26.7531 81.9064 26.7531 82.2445 26.7531C85.0026 26.828 87.7539 26.4503 90.3827 25.6359C91.5909 25.2629 92.7699 24.8107 93.7465 23.9896C93.9884 23.7608 94.2162 23.5185 94.4289 23.2637L94.5478 23.3874C94.2912 25.3663 92.7115 25.8752 91.0233 26.3273C91.7082 26.3453 92.3933 26.2971 93.0683 26.1834C94.8483 25.8873 95.9897 24.5026 95.8541 22.8339C95.7331 21.2524 95.1071 19.8433 94.3078 18.491C94.264 18.418 94.1659 18.3734 94.0053 18.2477C94.0533 19.5919 93.3793 20.4577 92.3901 21.1734C93.3834 18.122 92.2149 15.5065 90.7583 12.9477ZM67.5476 9.83143C67.3661 8.915 66.8006 8.36757 66.1328 7.79378C67.412 8.06546 68.063 8.98799 68.8706 9.93889C68.8539 9.69153 68.8706 9.59827 68.8393 9.53339C68.2651 8.50445 67.4159 7.64502 66.3811 7.04562C64.7389 6.15498 62.8842 5.70043 61.0036 5.72774C60.1545 5.72573 59.3064 5.78468 58.4662 5.90413C57.1515 6.08661 55.8432 6.32383 54.539 6.57118C53.9776 6.67864 53.4309 6.87126 52.8696 7.02535L52.8216 6.90775C53.0929 6.78002 53.3746 6.67053 53.6354 6.52455C56.0589 5.12826 58.6612 4.04843 61.3751 3.31296C63.1968 2.8365 65.0352 2.59928 66.9091 3.02506C68.5013 3.38393 69.6218 4.30442 70.3272 5.72165C70.4252 5.92441 70.5191 6.12716 70.613 6.32991L70.7445 6.30153C70.749 6.09765 70.7322 5.89386 70.6944 5.69327C70.5942 5.35526 70.4694 5.02461 70.3209 4.70384C69.3151 2.52831 67.5497 1.25706 65.1562 0.975236C64.0064 0.837365 62.8066 0.995511 61.638 1.10905C59.7099 1.29558 57.9132 1.95453 56.1499 2.6966C52.4441 4.2773 49.1371 6.62347 46.4591 9.57191C45.8568 10.2407 45.3358 10.9748 44.9066 11.7596C44.4246 12.6172 44.9317 13.4952 45.8978 13.4931C47.0351 13.4931 48.1932 13.481 49.3054 13.2417C51.2357 12.82 53.1304 12.228 55.0335 11.6927C56.8719 11.1716 58.6895 10.5715 60.5425 10.1031C61.7999 9.81104 63.0735 9.589 64.357 9.4381C65.4374 9.27318 66.5438 9.40958 67.5476 9.83143ZM72.4014 25.2669C72.5607 25.2726 72.7202 25.2618 72.8771 25.2345C73.8516 24.9547 74.8178 24.6566 75.7986 24.3728C78.4033 23.6298 80.9183 22.6169 83.3003 21.3518C85.314 20.263 87.1963 19.008 88.3711 16.9906C88.6809 16.4532 88.8774 15.8612 88.9491 15.2492C89.0207 14.6372 88.9661 14.0175 88.7884 13.4262C88.3085 11.6197 87.0147 10.3403 85.6584 9.11369C85.5431 9.04444 85.4198 8.98863 85.2911 8.94744C85.7342 9.92816 85.9537 10.9904 85.9346 12.0613C85.9155 13.1322 85.6583 14.1864 85.1805 15.1516C85.1418 14.9718 85.1418 14.7861 85.1805 14.6062C85.481 13.5073 85.241 12.4165 85.049 11.348C84.7375 9.79567 84.1417 8.31026 83.2899 6.9625C82.906 6.32586 82.7202 5.5777 82.4552 4.88024L82.5992 4.82144C83.5967 6.08255 84.8821 7.02535 86.2009 7.92354C87.4634 8.78523 88.705 9.6672 89.7776 10.7621C91.184 12.1813 92.3818 13.7324 92.8868 15.6889C93.0454 16.3094 93.1601 16.9399 93.2937 17.5664C93.4171 16.3761 93.241 15.1744 92.7804 14.0649C91.9878 12.1365 90.7615 10.4046 89.1912 8.9961C88.1207 8.00869 86.9855 7.09631 85.9255 6.1008C85.1429 5.36887 84.3646 4.6126 83.9472 3.59479C83.5925 2.73512 83.9472 2.09848 84.8821 1.92209C85.0588 1.87457 85.2306 1.81145 85.3954 1.73353C85.289 1.59363 85.2118 1.55713 85.1346 1.55308C83.8714 1.44474 82.5985 1.56155 81.3785 1.89776C80.4791 2.16742 79.7279 2.67632 79.3314 3.56235C78.8034 4.73628 79.0747 5.88588 79.5401 6.98683C80.1786 8.50544 81.055 9.92267 81.368 11.5731C81.6581 13.1059 81.6894 14.6326 81.247 16.1228C80.4311 18.864 78.6449 20.9706 76.3557 22.6717C75.1058 23.5942 73.7577 24.3829 72.4014 25.2669ZM77.7476 28.3285L77.685 28.4765C77.7455 28.5292 77.8018 28.588 77.8665 28.6346C80.183 30.294 82.2886 32.2147 84.1392 34.3563C85.6413 36.0544 86.9445 37.9095 88.0247 39.8874C89.2767 42.2596 90.1678 44.7352 90.0071 47.4642C90.0187 47.6161 90.0438 47.7667 90.0822 47.9143C90.1913 47.7913 90.2917 47.6612 90.3827 47.525C90.9628 46.4707 91.5701 45.4306 92.1043 44.356C93.3292 41.8926 94.4831 39.4028 95.2177 36.7427C95.5867 35.4315 95.816 34.087 95.9021 32.7302C95.9292 32.2537 95.7164 32.122 95.2761 32.2051C94.7184 32.322 94.154 32.4059 93.5858 32.4565C92.6552 32.4991 91.7203 32.4687 90.7708 32.4687C92.5487 32.051 94.1847 31.3981 95.4743 30.1066C95.4421 30.0946 95.4073 30.0905 95.3731 30.0948C95.3389 30.099 95.3063 30.1114 95.2782 30.1309C93.8184 30.9186 92.1665 31.3081 90.4975 31.2582C88.6796 31.2149 86.8715 30.9852 85.1033 30.5729C82.9493 30.099 80.8328 29.4763 78.7701 28.7097L77.7476 28.3285ZM38.396 29.8957C38.3702 30.0133 38.3542 30.1326 38.348 30.2526C38.371 31.5583 38.3167 32.8559 38.5233 34.1718C38.7188 35.6319 39.0599 37.0701 39.5416 38.4661C40.6956 41.5824 42.196 44.5486 43.8299 47.4561C43.9267 47.6065 44.0334 47.7507 44.1491 47.8879C44.2159 47.7886 44.2472 47.7622 44.2493 47.7338C44.2566 47.6502 44.2566 47.5661 44.2493 47.4824C44.1593 45.7659 44.4438 44.0503 45.084 42.4481C46.2004 39.5224 47.9199 36.9373 49.9398 34.5165C50.6055 33.7217 51.0959 32.7728 51.5528 31.8401C51.9702 30.9805 51.3922 30.1755 50.4051 30.1918C49.6976 30.2069 48.9932 30.2884 48.3017 30.4351C47.2104 30.6581 46.144 31.0109 45.0464 31.2015C43.6045 31.4529 42.1417 31.4671 40.7457 30.9399C39.9632 30.6398 39.2036 30.2546 38.396 29.8957ZM52.4084 31.5461C52.5314 31.4494 52.6446 31.3414 52.7465 31.2238C53.5352 30.0073 54.3491 28.7908 54.6245 27.3715C54.8666 26.1266 54.8332 25.3561 53.6876 24.7357C53.1345 24.4706 52.5283 24.3267 51.9118 24.314C49.631 24.2146 47.4712 24.829 45.326 25.492C43.761 25.9766 42.196 26.4307 40.5099 26.3212C39.7503 26.2705 39.3121 25.8407 39.3267 25.1047C39.316 25.0034 39.2972 24.9031 39.2704 24.8047C38.2499 25.9705 38.3772 28.0771 39.6001 28.9692C40.4488 29.5662 41.4738 29.8799 42.5215 29.8633C43.6233 29.8856 44.7292 29.7822 45.8331 29.6991C46.5176 29.6484 47.1978 29.5308 47.8823 29.4477C48.7024 29.3463 49.5266 29.1435 50.3405 29.1821C51.4318 29.2348 52.3354 29.7619 52.4272 30.7757C52.4251 30.9886 52.4084 31.2055 52.4084 31.5461ZM77.9959 78.7103C77.8206 78.694 77.7872 78.6839 77.7872 78.692C77.6662 78.8116 77.5431 78.9292 77.4262 79.0549C75.6616 80.9583 73.5729 82.5523 71.2516 83.7669C68.7266 85.099 66.1996 85.3179 63.5641 84.0913C61.0934 82.9397 59.0066 81.2872 57.1286 79.3854C56.6319 78.8867 56.1666 78.3575 55.5865 77.735C56.2334 82.6761 54.9855 87.2441 53.7084 91.8222C52.3813 96.5463 49.5454 100.356 46.1691 103.872C46.2692 103.904 46.3235 103.91 46.3569 103.886C46.5656 103.75 46.7555 103.616 46.9433 103.466C49.6292 101.343 51.832 98.7006 53.4121 95.7069C54.8538 92.9861 55.8701 90.0716 56.4274 87.0596C56.7238 85.4376 56.9491 83.8156 57.2058 82.1935C57.2705 81.788 57.331 81.3724 57.3957 80.9365C57.4507 80.9616 57.5025 80.9929 57.5501 81.0297C59.2689 82.9126 61.3687 84.4311 63.7185 85.4903C65.9784 86.5243 68.2571 86.5791 70.5129 85.4619C73.0169 84.219 75.0703 82.4328 76.819 80.3079C77.1946 79.8112 77.5577 79.2861 77.9959 78.7103ZM55.2505 13.1363L55.286 13.2823C55.3836 13.3003 55.4835 13.3044 55.5823 13.2944C56.5986 13.039 57.6044 12.7348 58.6289 12.5199C59.9128 12.2158 61.2432 12.143 62.5541 12.305C64.4321 12.5706 65.9075 13.3654 66.6295 15.1577C67.3703 17.0007 67.2221 18.9025 66.8256 20.7719C66.5397 22.1263 66.041 23.4361 65.6424 24.7682C65.6257 24.827 65.6675 24.902 65.703 25.0581C65.8615 24.8067 65.9868 24.6526 66.0723 24.4701C67.0552 22.4548 68.134 20.4739 68.9791 18.4058C69.6698 16.7149 70.2061 14.9469 69.8556 13.0532C69.6344 11.8569 68.783 10.8107 67.5601 10.5025C65.9262 10.097 64.2798 10.2086 62.6772 10.6039C61.0746 10.9993 59.5346 11.4879 57.9883 12.0029C57.0618 12.3151 56.1708 12.7551 55.2505 13.1363ZM84.1935 50.3352L84.0683 50.2865C83.9931 50.3473 83.9159 50.4041 83.845 50.469C83.2503 51.0306 82.6931 51.6368 82.0546 52.1457C80.7212 53.2408 79.0383 53.8527 77.2927 53.8772C76.2284 53.8955 75.16 53.7272 74.0937 53.715C73.428 53.715 72.825 53.9887 72.2449 54.3618C72.3367 54.4409 72.3596 54.4794 72.3868 54.4814C72.5065 54.496 72.6272 54.5014 72.7478 54.4977C73.6054 54.4582 74.4536 54.6863 75.1684 55.1485C76.0508 55.6818 77.0282 56.0498 78.0501 56.2332C79.7893 56.5525 81.5882 56.2044 83.0687 55.262C83.8763 54.7714 84.6046 54.2868 85.6333 54.2969C85.9513 54.2937 86.2631 54.2113 86.5389 54.0576C86.8147 53.9039 87.0454 53.684 87.2088 53.419L86.9125 53.5123C86.8311 53.5366 86.7476 53.563 86.6642 53.5853C85.5999 53.8935 84.6296 53.7617 83.7594 53.0378C83.4276 52.7621 83.3421 52.5107 83.5758 52.1295C83.7389 51.8338 83.8703 51.5227 83.9681 51.2009C84.0662 50.915 84.1267 50.6231 84.2018 50.3352H84.1935ZM47.0288 53.4535C47.2416 53.7043 47.5047 53.9104 47.8021 54.0593C48.0995 54.2081 48.425 54.2966 48.7587 54.3192C49.4917 54.3469 50.201 54.5792 50.8016 54.9883C51.5471 55.5048 52.3807 55.8892 53.264 56.1237C55.2422 56.6103 57.1536 56.2697 58.8981 55.2336C59.7203 54.745 60.5675 54.4449 61.5378 54.4997C61.6865 54.4951 61.8345 54.4781 61.9802 54.449C61.9571 54.3933 61.9277 54.3402 61.8926 54.2908C61.8421 54.2446 61.7861 54.2044 61.7257 54.1712C60.7156 53.6623 59.5522 53.5186 58.4432 53.7657C57.3718 53.9694 56.2662 53.9263 55.2151 53.64C53.506 53.2223 52.0996 52.2856 50.9039 51.0428C50.6451 50.7731 50.4051 50.4852 50.1568 50.2054L49.9482 50.3514C50.1777 50.9191 50.4031 51.4908 50.6409 52.0565C50.9122 52.7053 50.8934 52.7621 50.3008 53.1615C49.2741 53.861 48.1911 53.8995 47.0288 53.4535ZM88.9825 44.0073L89.0409 43.764C87.9225 43.4659 86.8207 43.0422 85.6813 42.9002C84.0611 42.7007 82.4155 42.8495 80.861 43.3362C79.0038 43.9059 77.1048 44.3743 75.2393 44.8933C74.3107 45.1528 73.3842 45.4164 72.466 45.7043C72.297 45.757 72.0675 45.9212 72.0487 46.0652C71.8952 46.86 71.9309 47.6783 72.153 48.4577C72.2866 48.926 72.4723 48.8632 72.8124 48.6989C75.6838 47.2932 78.5593 45.8942 81.439 44.502C83.4422 43.5369 85.5582 43.4639 87.718 43.8147C88.1457 43.8816 88.5631 43.9424 88.9825 44.0073ZM45.2447 43.9708C45.3403 43.9965 45.4401 44.0048 45.5389 43.9951C46.7158 43.6484 47.924 43.622 49.1364 43.6626C49.6363 43.6577 50.1354 43.7011 50.6263 43.7924C52.7965 44.3013 54.7393 45.3495 56.7196 46.2984C58.318 47.0607 59.881 47.892 61.4523 48.705C61.8321 48.9078 62.0449 48.8611 62.0783 48.4192C62.1388 47.7845 62.166 47.1479 62.2557 46.5173C62.3412 45.9253 62.0199 45.7428 61.5065 45.6029C59.2111 44.9825 56.9345 44.3175 54.6433 43.695C53.1993 43.3037 51.7782 42.8414 50.2403 42.8252C48.502 42.7888 46.7828 43.183 45.2447 43.9708ZM46.8765 23.7402V23.6429C46.288 23.5537 45.6975 23.4766 45.1111 23.3753C43.6504 23.1218 42.2335 22.767 40.971 22.0107C40.0946 21.4917 39.3914 20.7962 39.5834 19.6669C39.6747 19.3001 39.7954 18.9409 39.9444 18.5923C39.3184 19.1296 38.9949 19.8088 38.6923 20.5489C38.4883 21.0228 38.4818 21.5552 38.6741 22.0338C38.8665 22.5123 39.2426 22.8995 39.7232 23.1137C40.4476 23.4648 41.2292 23.6912 42.0332 23.7828C43.4793 23.8902 44.9421 23.8193 46.3965 23.8152C46.5582 23.8021 46.7187 23.777 46.8765 23.7402ZM59.8017 26.5382L59.9165 26.6213C60.8242 25.7191 61.7945 24.8614 62.2786 23.6307C62.7168 22.5298 62.4205 21.4167 61.3438 20.9767C60.3979 20.6267 59.434 20.3248 58.4557 20.0724C58.3368 20.038 58.1845 20.113 58.0384 20.1373C58.3195 20.2895 58.616 20.4131 58.9232 20.5063C59.7328 20.8044 60.4507 21.2261 60.8492 22.0148C61.3313 22.9697 61.1455 23.9207 60.7261 24.833C60.4674 25.421 60.1147 25.9725 59.8017 26.5382ZM90.2679 54.2219L90.3994 54.2848C90.5392 54.1367 90.7458 54.009 90.8042 53.8367C90.9524 53.4281 91.0511 53.0042 91.0985 52.5735C91.1652 51.7625 91.2696 50.9718 91.8246 50.3433C93.1768 48.8429 93.6317 47.0992 93.4648 45.1528C93.3997 44.7924 93.3019 44.4382 93.1727 44.0945C93.0996 44.2323 93.0621 44.2729 93.06 44.3155C93.06 44.5 93.06 44.6845 93.0725 44.869C93.1967 46.6882 92.5901 48.4833 91.3802 49.8769C90.8334 50.5359 90.5037 51.2212 90.5455 52.0829C90.5726 52.8047 90.8126 53.5528 90.2596 54.2219H90.2679ZM41.0921 44.2526L40.9836 44.2242C40.9168 44.6784 40.8208 45.1285 40.7895 45.5847C40.6768 47.1682 41.0253 48.6584 42.0645 49.8952C42.7711 50.6717 43.149 51.6793 43.1225 52.7155C43.11 53.0136 43.1696 53.3105 43.2964 53.5823C43.4233 53.8541 43.6138 54.0933 43.8528 54.2807C43.7589 53.8367 43.5252 53.4048 43.6149 53.052C43.9467 51.7463 43.5711 50.6961 42.7114 49.6945C41.8972 48.7451 41.3891 47.5836 41.2507 46.3551C41.1714 45.6516 41.1442 44.9521 41.0921 44.2526ZM63.4076 66.4904C63.7101 67.1392 64.6325 67.7657 65.3566 67.6096C65.1416 66.9223 64.0148 66.2674 63.4076 66.4904ZM70.7445 66.5168C70.0809 66.3546 69.1252 66.9223 68.856 67.638L70.7445 66.5168Z" fill="white"/>
<path d="M44.6081 11.3055C44.4307 11.711 44.2534 12.1165 44.0739 12.522C43.4708 13.8865 44.5372 14.6732 45.6515 14.9002C47.1864 15.1871 48.7619 15.2035 50.3028 14.9489C51.7218 14.7461 53.1512 14.5981 54.5597 14.3406C56.0204 14.069 57.4352 13.6391 58.8897 13.3634C60.7364 13.0126 62.602 12.816 64.3986 13.6188C65.5797 14.146 66.1724 15.0766 66.4249 16.2992C66.7942 18.0997 66.3226 19.7866 65.7446 21.4451C65.3272 22.6616 64.7346 23.8315 64.215 25.0196C64.1862 25.0791 64.1441 25.1317 64.0918 25.1735C64.0395 25.2152 63.9782 25.2451 63.9124 25.2609C63.9146 25.1087 63.9286 24.9569 63.9542 24.8067C64.48 22.692 63.3135 20.7517 61.1684 20.1252C59.8182 19.746 58.4083 19.6086 57.0075 19.7197C56.4983 19.7561 55.987 19.7744 55.4779 19.8008L55.4591 19.9244C55.6824 19.969 55.9036 20.0339 56.1289 20.0603C57.0294 20.1339 57.8901 20.4529 58.6121 20.9808C59.4468 21.6255 59.7452 22.6372 59.4948 23.6551C59.0337 25.5224 57.863 26.9782 56.6464 28.4055C56.0204 29.1314 55.3464 29.8086 54.6891 30.502C54.5537 30.649 54.3753 30.7523 54.1778 30.798C54.351 30.4412 54.5242 30.0823 54.6995 29.7254C55.2379 28.6265 55.6845 27.4952 55.7429 26.2665C55.8284 24.239 54.5827 23.6307 53.051 23.4604C52.473 23.3935 51.8741 23.5233 51.2856 23.505C49.7811 23.4584 48.2745 23.4199 46.7741 23.3023C45.388 23.1934 44.0391 22.8119 42.8093 22.1811C41.2944 21.4167 40.2448 19.9508 40.5786 17.978C40.8436 16.4189 41.6032 15.101 42.4567 13.8196C42.9283 13.1181 43.4708 12.4591 43.9883 11.7921C44.1386 11.5893 44.316 11.423 44.4829 11.2406L44.6081 11.3055Z" fill="#5A143A"/>
<path d="M68.9145 25.0763C69.2755 24.7722 69.6553 24.4863 69.9933 24.1599C72.2345 21.9742 74.1396 19.5635 75.3124 16.6581C76.0667 14.8576 76.3534 12.9045 76.1471 10.9709C76.0156 9.84157 75.6108 8.74063 75.327 7.62955L75.2039 7.66604C75.2519 8.43042 75.3186 9.19479 75.3416 9.96119C75.4021 11.8671 74.8596 13.6594 74.0896 15.3787C72.4202 19.1094 69.8681 22.2398 66.9467 25.1108C66.8814 25.1507 66.8113 25.1827 66.738 25.2061C66.7599 25.0872 66.7906 24.97 66.8298 24.8553C67.6437 23.1705 68.5409 21.518 69.2546 19.7865C70.1436 17.6455 70.7466 15.4071 70.6819 13.0734C70.6235 10.8979 69.9891 8.915 68.1006 7.53831C67.4746 7.08415 66.7672 6.74758 66.1245 6.37046C66.6316 6.18596 68.8686 7.32137 69.9244 8.34526C71.0158 9.40565 71.6168 10.7134 71.9173 12.1732C72.3054 7.70457 71.4436 3.58668 68.2905 0.117596L68.397 0C68.7329 0.156119 69.0731 0.304128 69.4049 0.466329C71.5563 1.51658 73.6597 2.66619 75.4918 4.20913C77.4868 5.89805 79.2709 7.76742 80.1139 10.3018C80.8318 12.4692 80.6022 14.5596 79.5651 16.5567C78.478 18.6653 76.7835 20.2731 74.9305 21.7411C73.2761 23.0143 71.4933 24.1215 69.6093 25.0459C69.4403 25.1311 69.2567 25.1939 69.0793 25.2669L68.9145 25.0763Z" fill="#5A143A"/>
<path d="M90.7583 12.9478C92.2191 15.5065 93.3835 18.122 92.3776 21.1774C93.3584 20.4617 94.047 19.596 93.9928 18.2517C94.1535 18.3774 94.2515 18.4221 94.2953 18.495C95.0946 19.8474 95.7206 21.2565 95.8416 22.838C95.971 24.5066 94.8358 25.8914 93.0558 26.1874C92.3808 26.3012 91.6957 26.3494 91.0108 26.3314C92.699 25.8793 94.2787 25.3704 94.5353 23.3915L94.4164 23.2678C94.2037 23.5225 93.9759 23.7649 93.734 23.9937C92.7574 24.8047 91.5784 25.267 90.3702 25.64C87.7414 26.4544 84.9901 26.8321 82.232 26.7572C81.8939 26.747 81.5559 26.7572 81.2178 26.7572C81.2178 26.8241 81.2178 26.891 81.2178 26.9599C84.062 26.9883 86.9083 27.1242 89.7463 27.0045C91.7182 26.9214 93.7111 26.599 95.4556 25.5549C96.2381 25.0906 96.9163 24.5229 97.2293 23.647C97.2659 23.5724 97.3145 23.5039 97.3733 23.4442C97.4205 23.3994 97.4722 23.3593 97.5277 23.3246C97.5581 23.441 97.5783 23.5597 97.5882 23.6794C97.5402 25.3014 97.1855 26.8261 96.0837 28.0953C95.2908 28.9763 94.2404 29.6015 93.0725 29.8877C90.9858 30.4635 88.8991 30.2932 86.7894 29.9444C82.7349 29.2794 78.9683 27.7872 75.2331 26.1976C75.08 26.107 74.9367 26.0017 74.8053 25.8833C75.3708 25.7759 75.8194 25.6806 76.266 25.6096C80.0388 25.0419 83.3984 23.5152 86.4639 21.3518C88.2438 20.0988 89.6941 18.5498 90.4286 16.4756C90.8258 15.4108 90.8861 14.255 90.6018 13.1566C90.596 13.0949 90.5996 13.0328 90.6123 12.9721L90.7583 12.9478Z" fill="#5A143A"/>
<path d="M67.5475 9.83144C66.5433 9.41096 65.437 9.27597 64.3569 9.44215C63.0734 9.59306 61.7998 9.8151 60.5424 10.1072C58.6894 10.5755 56.8718 11.1757 55.0334 11.6968C53.1303 12.2361 51.2356 12.8241 49.3054 13.2458C48.2036 13.485 47.035 13.4931 45.8977 13.4972C44.9316 13.4972 44.4245 12.6213 44.9065 11.7637C45.3355 10.9774 45.8564 10.242 46.4591 9.57192C49.1394 6.62253 52.4493 4.27629 56.1582 2.6966C57.9215 1.95453 59.7181 1.29559 61.6463 1.10906C62.8148 0.995516 64.0147 0.83737 65.1645 0.975241C67.5621 1.26518 69.3233 2.52832 70.3292 4.70385C70.4777 5.02462 70.6025 5.35526 70.7027 5.69327C70.7405 5.89386 70.7573 6.09766 70.7528 6.30153L70.6213 6.32992C70.5274 6.12716 70.4335 5.92441 70.3354 5.72166C69.6301 4.3024 68.5095 3.38393 66.9174 3.02506C65.0393 2.59928 63.2051 2.8365 61.3833 3.31297C58.6692 4.04971 56.0669 5.13091 53.6437 6.52861C53.3828 6.67459 53.1011 6.78408 52.8298 6.91181L52.8778 7.02941C53.4308 6.87532 53.9775 6.6827 54.5472 6.57525C55.8514 6.32789 57.1598 6.09067 58.4744 5.90819C59.3146 5.78874 60.1628 5.72979 61.0119 5.7318C62.8924 5.70449 64.7472 6.15904 66.3894 7.04968C67.42 7.648 68.2661 8.50442 68.8392 9.52934C68.8747 9.59016 68.8538 9.68343 68.8705 9.93484C68.063 8.98394 67.4098 8.06142 66.1327 7.78973C66.8005 8.36757 67.366 8.92108 67.5475 9.83144Z" fill="#5A143A"/>
<path d="M72.4014 25.2669C73.7577 24.3829 75.1141 23.5942 76.3495 22.6717C78.6449 20.9706 80.4248 18.864 81.2408 16.1228C81.6831 14.6326 81.6581 13.1059 81.3618 11.5731C81.0488 9.92266 80.1723 8.50542 79.5338 6.98681C79.0706 5.88587 78.7993 4.73627 79.3251 3.56233C79.7216 2.67631 80.4728 2.1674 81.3722 1.89774C82.5922 1.56154 83.8651 1.44473 85.1283 1.55306C85.2055 1.55306 85.2827 1.59361 85.3892 1.73351C85.2243 1.81144 85.0525 1.87455 84.8758 1.92207C83.9368 2.09847 83.5862 2.73308 83.941 3.59477C84.3583 4.60853 85.1367 5.36885 85.9192 6.10079C86.9813 7.09224 88.1165 8.00868 89.187 8.99203C90.7573 10.4006 91.9836 12.1324 92.7762 14.0608C93.2368 15.1703 93.413 16.372 93.2895 17.5623C93.156 16.9358 93.0412 16.3053 92.8826 15.6849C92.3776 13.7283 91.1798 12.1833 89.7734 10.758C88.7008 9.66922 87.4592 8.78725 86.1967 7.91947C84.8821 7.02533 83.5967 6.08254 82.6055 4.82142L82.4615 4.88022C82.7369 5.57769 82.9227 6.32584 83.2962 6.96248C84.1523 8.3114 84.7517 9.79895 85.0657 11.3541C85.2577 12.4226 85.4977 13.5134 85.1972 14.6123C85.1585 14.7922 85.1585 14.9778 85.1972 15.1577C85.675 14.1925 85.9322 13.1383 85.9513 12.0674C85.9704 10.9965 85.7509 9.93423 85.3078 8.9535C85.4365 8.9947 85.5598 9.0505 85.6751 9.11976C87.0252 10.3363 88.3189 11.6258 88.8052 13.4323C88.9828 14.0236 89.0374 14.6433 88.9658 15.2553C88.8941 15.8673 88.6976 16.4593 88.3878 16.9967C87.213 19.0242 85.3307 20.2691 83.3171 21.3579C80.935 22.623 78.42 23.6358 75.8153 24.3789C74.8428 24.6627 73.8767 24.9608 72.8938 25.2406C72.7312 25.267 72.566 25.2758 72.4014 25.2669Z" fill="#5A143A"/>
<path d="M77.7476 28.3285L78.7743 28.7097C80.8371 29.4764 82.9535 30.0991 85.1075 30.573C86.8758 30.9853 88.6838 31.215 90.5017 31.2583C92.1708 31.3082 93.8226 30.9186 95.2824 30.131C95.3105 30.1115 95.3431 30.0991 95.3774 30.0948C95.4116 30.0906 95.4464 30.0946 95.4786 30.1067C94.189 31.3982 92.5572 32.051 90.7751 32.4687C91.7246 32.4687 92.6532 32.4991 93.5901 32.4565C94.1582 32.406 94.7227 32.322 95.2803 32.2051C95.7165 32.1321 95.9293 32.2538 95.9064 32.7303C95.8203 34.087 95.5909 35.4315 95.2219 36.7427C94.4874 39.4028 93.3439 41.8926 92.1085 44.3561C91.5743 45.4306 90.9671 46.4708 90.387 47.5251C90.296 47.6613 90.1956 47.7913 90.0865 47.9143C90.0481 47.7667 90.023 47.6161 90.0113 47.4642C90.172 44.7352 89.2873 42.2596 88.029 39.8874C86.9488 37.9095 85.6456 36.0544 84.1435 34.3563C82.2929 32.2147 80.1873 30.2941 77.8708 28.6347C77.8061 28.588 77.7497 28.5292 77.6892 28.4765L77.7476 28.3285Z" fill="#5A143A"/>
<path d="M38.396 29.8958C39.2036 30.2546 39.9632 30.6399 40.7582 30.9399C42.1542 31.4671 43.617 31.4529 45.0589 31.2015C46.1566 31.0109 47.2229 30.6581 48.3142 30.4351C49.0057 30.2884 49.7101 30.2069 50.4177 30.1918C51.4047 30.1756 51.9848 30.9805 51.5654 31.8401C51.1084 32.7728 50.618 33.7217 49.9523 34.5165C47.9324 36.9373 46.2129 39.5224 45.0965 42.4481C44.4563 44.0503 44.1718 45.7659 44.2618 47.4824C44.2691 47.5661 44.2691 47.6502 44.2618 47.7339C44.2618 47.7622 44.2284 47.7886 44.1617 47.8879C44.0459 47.7507 43.9393 47.6065 43.8424 47.4561C42.2085 44.5507 40.7123 41.5763 39.5542 38.4661C39.0681 37.0705 38.7229 35.6323 38.5233 34.1718C38.3146 32.8559 38.371 31.5583 38.348 30.2526C38.3542 30.1326 38.3702 30.0133 38.396 29.8958Z" fill="#5A143A"/>
<path d="M52.4083 31.5462C52.4083 31.2056 52.425 30.9886 52.4083 30.7757C52.3228 29.762 51.4192 29.2348 50.3216 29.1821C49.5078 29.1436 48.6835 29.3463 47.8634 29.4477C47.179 29.5308 46.4987 29.6504 45.8142 29.6991C44.7104 29.7822 43.6044 29.8856 42.5026 29.8633C41.4549 29.8799 40.4299 29.5662 39.5812 28.9692C38.3646 28.0771 38.2373 25.9705 39.2515 24.7986C39.2783 24.897 39.2971 24.9974 39.3078 25.0987C39.2932 25.8407 39.7252 26.2706 40.491 26.3152C42.1604 26.4247 43.7421 25.9705 45.3072 25.4859C47.4523 24.8229 49.6121 24.2086 51.8929 24.3079C52.5139 24.3257 53.1231 24.4767 53.677 24.7499C54.8247 25.3582 54.856 26.1368 54.614 27.3857C54.3364 28.805 53.5226 30.0215 52.7359 31.238C52.6367 31.3503 52.527 31.4534 52.4083 31.5462ZM44.3994 28.4218C42.6758 28.6407 40.9501 28.8476 39.1993 28.0447C40.0319 28.9023 41.7869 29.2267 44.3994 28.4218Z" fill="#5A143A"/>
<path d="M77.9959 78.7103C77.5619 79.2861 77.1988 79.8112 76.796 80.3019C75.0432 82.4267 72.9877 84.213 70.4837 85.4558C68.2279 86.573 65.9492 86.5183 63.6893 85.4842C61.3395 84.425 59.2397 82.9066 57.5209 81.0237C57.4733 80.9869 57.4215 80.9556 57.3665 80.9304C57.3018 81.3663 57.2413 81.7779 57.1766 82.1875C56.9199 83.8095 56.6946 85.4416 56.3982 87.0535C55.8414 90.0647 54.8258 92.9785 53.385 95.6989C51.8049 98.6926 49.6021 101.335 46.9161 103.458C46.7283 103.608 46.528 103.742 46.3298 103.878C46.2964 103.902 46.2421 103.896 46.142 103.864C49.5266 100.362 52.3625 96.5464 53.6897 91.8222C54.9751 87.2441 56.223 82.6761 55.5677 77.735C56.1478 78.3575 56.6111 78.8867 57.1098 79.3854C58.9879 81.2873 61.0746 82.9397 63.5516 84.0913C66.1871 85.318 68.7141 85.1051 71.2391 83.7669C73.5604 82.5523 75.6491 80.9584 77.4137 79.055C77.5306 78.9293 77.6537 78.8117 77.7747 78.692C77.7872 78.6839 77.8164 78.6941 77.9959 78.7103Z" fill="#5A143A"/>
<path d="M55.2505 13.1363C56.1624 12.7551 57.0534 12.3152 57.9904 12.0029C59.5366 11.4879 61.0954 10.9892 62.6792 10.6039C64.2631 10.2187 65.9283 10.0869 67.5622 10.5026C68.7746 10.8107 69.626 11.8569 69.8576 13.0532C70.2082 14.9469 69.6719 16.7149 68.9812 18.4058C68.1465 20.4739 67.0572 22.4609 66.0744 24.4701C65.9888 24.6465 65.8657 24.8067 65.705 25.0581C65.6695 24.902 65.6278 24.827 65.6445 24.7682C66.0431 23.4361 66.5418 22.1324 66.8277 20.7719C67.2241 18.9026 67.3723 17.0008 66.6315 15.1577C65.9074 13.3654 64.4321 12.5706 62.554 12.305C61.2452 12.1437 59.917 12.2166 58.6352 12.5199C57.6106 12.7349 56.6048 13.039 55.5885 13.2945C55.4897 13.3044 55.3899 13.3003 55.2922 13.2823L55.2505 13.1363Z" fill="#5A143A"/>
<path d="M67.3076 72.5527C67.3472 72.0884 67.7353 72.056 68.0671 72.0195C69.1105 71.9039 70.0391 72.1857 70.9322 72.7129C71.8253 73.24 72.7602 73.6861 73.7117 74.1869C73.5031 74.3896 73.2026 74.6776 72.9313 74.9979C72.4326 75.5757 71.9985 76.2144 71.4539 76.7436C71.0777 77.1329 70.6258 77.4458 70.1244 77.6644C69.6229 77.8829 69.0819 78.0027 68.5325 78.0169C67.4635 78.0605 66.393 78.0504 65.3252 77.9865C64.3373 77.8887 63.4295 77.4149 62.8002 76.6686C62.0323 75.8089 61.2373 74.9715 60.4047 74.0734C61.6567 73.8463 62.6041 73.1306 63.6391 72.5466C64.8306 71.8735 66.0827 71.6951 67.3034 72.5466C67.539 72.6178 67.7806 72.6687 68.0254 72.6987C68.376 72.7149 68.7328 72.6358 69.0813 72.6663C69.4941 72.721 69.9037 72.7968 70.3083 72.8933L70.421 72.721C70.3492 72.712 70.279 72.6936 70.2123 72.6663C69.2753 72.0864 68.3008 72.1067 67.3076 72.5527ZM62.9985 73.9091C64.743 74.5336 66.4478 75.008 68.2466 74.7343C69.219 74.5863 70.1622 74.2416 71.1179 73.9862L71.0741 73.8341C69.9869 73.386 68.8726 73.1103 67.7207 73.5888C67.5431 73.6717 67.3491 73.7163 67.1521 73.7194C66.955 73.7226 66.7596 73.6842 66.5793 73.607C65.3753 73.1306 64.2234 73.3576 62.9985 73.9091ZM67.3305 76.8044C67.3793 76.9663 67.486 77.1059 67.6314 77.1981C67.7768 77.2903 67.9513 77.329 68.1235 77.3072C69.4819 77.2809 70.5921 76.6787 71.625 75.888C71.7822 75.7557 71.9155 75.5988 72.0194 75.4237C72.0695 75.3507 72.0486 75.2311 72.0632 75.1054C71.335 75.444 70.6922 75.819 69.9974 76.0441C69.3025 76.2692 68.52 76.3421 67.7833 76.5104C67.6159 76.582 67.4626 76.6815 67.3305 76.8044ZM63.4575 75.6568C63.5661 75.8596 63.6057 76.0765 63.7288 76.1434C64.3804 76.5245 65.0573 76.8632 65.755 77.1572C65.9637 77.2383 66.2997 77.0416 66.5563 76.9301C66.5826 76.8745 66.5962 76.814 66.5962 76.7527C66.5962 76.6915 66.5826 76.631 66.5563 76.5753C66.3391 76.458 66.1048 76.3732 65.8615 76.3239C65.6528 76.2793 65.4253 76.3361 65.2354 76.2773C64.6845 76.1049 64.1441 75.8981 63.4575 75.6568ZM63.8332 73.0393C64.7409 72.5203 65.7342 72.5527 66.7337 72.644C65.8448 71.9769 64.2943 72.1918 63.8332 73.0393Z" fill="#CE0967"/>
<path d="M84.2018 50.3351C84.1267 50.623 84.0662 50.915 83.9681 51.1928C83.8703 51.5145 83.7389 51.8257 83.5758 52.1214C83.3421 52.5026 83.4276 52.754 83.7594 53.0297C84.6296 53.7535 85.5999 53.8853 86.6641 53.5771C86.7476 53.5548 86.8311 53.5285 86.9124 53.5042L87.2088 53.4109C87.0453 53.6759 86.8147 53.8958 86.5389 54.0495C86.263 54.2032 85.9512 54.2856 85.6333 54.2888C84.6045 54.2787 83.8763 54.7632 83.0687 55.2539C81.5882 56.1963 79.7893 56.5444 78.0501 56.2251C77.0288 56.0441 76.0513 55.679 75.1683 55.1485C74.4549 54.6908 73.61 54.4656 72.7561 54.5057C72.6355 54.5095 72.5148 54.5041 72.3951 54.4895C72.3679 54.4895 72.345 54.449 72.2532 54.3699C72.8333 53.9968 73.4363 53.715 74.102 53.7231C75.1683 53.7353 76.2367 53.9036 77.301 53.8853C79.0466 53.8608 80.7295 53.2489 82.0629 52.1538C82.7014 51.6449 83.2586 51.0387 83.8533 50.4771C83.9243 50.4122 84.0015 50.3554 84.0766 50.2946L84.2018 50.3351Z" fill="#5A143A"/>
<path d="M47.0288 53.4535C48.1911 53.8995 49.2741 53.859 50.3071 53.1656C50.8997 52.7601 50.9185 52.7094 50.6472 52.0606C50.4093 51.4949 50.1839 50.9231 49.9544 50.3554L50.1631 50.2094C50.4114 50.4892 50.6514 50.7771 50.9101 51.0468C52.1058 52.2897 53.5123 53.2264 55.2213 53.6441C56.2725 53.9304 57.3781 53.9734 58.4495 53.7698C59.5585 53.5226 60.7218 53.6663 61.7319 54.1753C61.7923 54.2085 61.8484 54.2486 61.8988 54.2949C61.934 54.3443 61.9634 54.3973 61.9865 54.453C61.8408 54.4822 61.6928 54.4991 61.5441 54.5037C60.5738 54.449 59.7266 54.7491 58.9044 55.2377C57.1599 56.2737 55.2484 56.6144 53.2702 56.1278C52.387 55.8933 51.5534 55.5089 50.8079 54.9924C50.2072 54.5832 49.498 54.3509 48.765 54.3233C48.4298 54.3009 48.103 54.2122 47.8044 54.0626C47.5058 53.9131 47.2419 53.7058 47.0288 53.4535Z" fill="#5A143A"/>
<path d="M88.9824 44.0073C88.5651 43.9424 88.1477 43.8816 87.7304 43.8045C85.5706 43.4538 83.4547 43.5267 81.4514 44.4918C78.5689 45.88 75.6934 47.279 72.8249 48.6888C72.4847 48.8571 72.299 48.9159 72.1655 48.4475C71.9388 47.6699 71.8981 46.8523 72.0465 46.0571C72.0716 45.9131 72.3011 45.7489 72.4639 45.6962C73.382 45.4063 74.3085 45.1427 75.2371 44.8852C77.1152 44.3661 78.9932 43.8978 80.8588 43.328C82.4133 42.8414 84.0589 42.6926 85.6791 42.8921C86.8185 43.0341 87.9203 43.4578 89.0387 43.7559L88.9824 44.0073Z" fill="#5A143A"/>
<path d="M45.2446 43.9708C46.7865 43.181 48.5103 42.7867 50.2528 42.8253C51.7907 42.8415 53.2118 43.3038 54.6558 43.6951C56.9512 44.3175 59.2278 44.9825 61.519 45.603C62.0324 45.7429 62.3537 45.9253 62.2682 46.5174C62.1784 47.1479 62.1513 47.7846 62.0908 48.4192C62.0491 48.8612 61.8362 48.9017 61.4648 48.7051C59.8935 47.8941 58.3347 47.0608 56.7321 46.2984C54.7518 45.3495 52.809 44.3013 50.6388 43.7924C50.1479 43.7012 49.6487 43.6577 49.1489 43.6626C47.9365 43.6221 46.7283 43.6484 45.5514 43.9951C45.4485 44.0064 45.3443 43.9981 45.2446 43.9708Z" fill="#5A143A"/>
<path d="M46.8764 23.7402C46.7184 23.7742 46.5579 23.7966 46.3964 23.8071C44.9357 23.8071 43.475 23.8821 42.0331 23.7747C41.2296 23.6856 40.448 23.462 39.7231 23.1137C39.2453 22.8988 38.8716 22.5126 38.6802 22.0361C38.4888 21.5595 38.4946 21.0295 38.6964 20.557C38.9948 19.8271 39.3224 19.1377 39.9484 18.6004C39.7985 18.9462 39.6764 19.3028 39.5833 19.6669C39.3934 20.7942 40.0945 21.4917 40.9647 22.0087C42.2271 22.771 43.6545 23.1198 45.1047 23.3732C45.6911 23.4746 46.2817 23.5516 46.8701 23.6408L46.8764 23.7402Z" fill="#5A143A"/>
<path d="M59.8017 26.5382C60.1147 25.9725 60.4653 25.421 60.7365 24.8351C61.1539 23.9227 61.3417 22.9718 60.8597 22.0168C60.4611 21.2281 59.7433 20.8003 58.9336 20.5083C58.6264 20.4152 58.3299 20.2915 58.0488 20.1393C58.1845 20.115 58.3368 20.04 58.4662 20.0745C59.4443 20.3262 60.4083 20.6274 61.3542 20.9767C62.431 21.4167 62.7273 22.5298 62.2891 23.6307C61.7987 24.8614 60.8284 25.7191 59.9269 26.6213L59.8017 26.5382Z" fill="#5A143A"/>
<path d="M90.2596 54.2219C90.8126 53.5528 90.5727 52.8026 90.5414 52.0869C90.5038 51.2252 90.8335 50.5399 91.376 49.881C92.5814 48.4877 93.1849 46.6952 93.06 44.8791C93.0475 44.6946 93.0454 44.5101 93.0475 44.3256C93.0475 44.283 93.0872 44.2425 93.1602 44.1046C93.2895 44.4483 93.3872 44.8025 93.4523 45.1629C93.6193 47.1013 93.1644 48.853 91.8122 50.3534C91.2571 50.9718 91.1528 51.7727 91.086 52.5837C91.0387 53.0144 90.9399 53.4383 90.7918 53.8468C90.7333 54.0191 90.5267 54.1469 90.3869 54.2949L90.2596 54.2219Z" fill="#5A143A"/>
<path d="M41.092 44.2526C41.1442 44.9521 41.1713 45.6516 41.2527 46.347C41.3911 47.5755 41.8992 48.737 42.7134 49.6863C43.5731 50.6879 43.9487 51.7382 43.617 53.0439C43.5272 53.3967 43.7609 53.8286 43.8548 54.2726C43.6158 54.0852 43.4253 53.846 43.2985 53.5742C43.1716 53.3024 43.1121 53.0055 43.1245 52.7073C43.1489 51.6739 42.7711 50.6697 42.0665 49.8952C41.0232 48.6584 40.6788 47.1682 40.7915 45.5847C40.8228 45.1285 40.9188 44.6784 40.9856 44.2242L41.092 44.2526Z" fill="#5A143A"/>
<path d="M63.4076 66.4905C64.0044 66.2674 65.1417 66.9223 65.3566 67.6096C64.6408 67.7658 63.7102 67.1393 63.4076 66.4905Z" fill="#5A143A"/>
<path d="M70.7444 66.5168L68.856 67.638C69.1251 66.9081 70.0809 66.3546 70.7444 66.5168Z" fill="#5A143A"/>
<path d="M44.3996 28.4218C41.787 29.2328 40.0321 28.9023 39.1995 28.0446C40.9502 28.8475 42.676 28.6407 44.3996 28.4218Z" fill="white"/>
<path d="M62.9985 73.9091C64.2172 73.3577 65.3753 73.1306 66.5794 73.607C66.7597 73.6843 66.9551 73.7226 67.1521 73.7194C67.3492 73.7163 67.5432 73.6717 67.7208 73.5888C68.8727 73.1103 69.987 73.386 71.0742 73.8341L71.118 73.9862C70.1623 74.2416 69.2191 74.5944 68.2467 74.7343C66.4479 75.0182 64.743 74.5336 62.9985 73.9091Z" fill="#CE0967"/>
<path d="M67.3307 76.8044C67.4636 76.6851 67.6168 76.5891 67.7835 76.5205C68.5201 76.3523 69.286 76.2833 69.9975 76.0542C70.7091 75.8251 71.3351 75.446 72.0634 75.1155C72.0488 75.2412 72.0634 75.3608 72.0196 75.4338C71.9157 75.6089 71.7824 75.7658 71.6252 75.8981C70.5922 76.6787 69.4821 77.2809 68.1236 77.3174C67.9501 77.3386 67.7745 77.2985 67.6289 77.2043C67.4833 77.1101 67.3774 76.9682 67.3307 76.8044Z" fill="#CE0967"/>
<path d="M63.4576 75.6568C64.1442 75.8981 64.6846 76.1049 65.2355 76.2752C65.4317 76.334 65.6633 76.2752 65.8616 76.3218C66.1049 76.3711 66.3392 76.4559 66.5564 76.5732C66.5827 76.6289 66.5963 76.6894 66.5963 76.7506C66.5963 76.8119 66.5827 76.8724 66.5564 76.9281C66.2998 77.0396 65.9617 77.2362 65.7551 77.1551C65.0574 76.8611 64.3805 76.5225 63.7289 76.1414C63.5975 76.0765 63.5662 75.8616 63.4576 75.6568Z" fill="#CE0967"/>
<path d="M67.3076 72.5527C68.3009 72.1066 69.2754 72.0863 70.229 72.6622C70.2957 72.6895 70.3659 72.7079 70.4377 72.7169L70.325 72.8892C69.9204 72.7927 69.5108 72.7169 69.098 72.6622C68.7495 72.6317 68.3927 72.7108 68.0421 72.6946C67.7974 72.6645 67.5558 72.6137 67.3201 72.5425L67.3076 72.5527Z" fill="#CE0967"/>
<path d="M63.8333 73.0393C64.2944 72.1918 65.8449 71.9728 66.7338 72.6439C65.7343 72.5527 64.741 72.5203 63.8333 73.0393Z" fill="#CE0967"/>
</svg>
